<svg width="80" height="68" viewBox="0 29 80 68" xmlns="http://www.w3.org/2000/svg"><path d="M79.7 58.812l-12.41-28.88a1.243 1.243 0 0 0-1.895-.498L39.9 48.838 14.406 29.434a1.244 1.244 0 0 0-1.896.499L.101 58.812a1.243 1.243 0 0 0 .294 1.4l38.657 36.054a1.24 1.24 0 0 0 1.696 0l38.657-36.054c.384-.358.501-.918.294-1.4zM39.38 78.214c.003.001.243.114.521.114s.446-.084.488-.102l3.638-1.671L39.9 90.868l-4.127-14.313 3.608 1.66zm.52-2.498l-5.037-2.317-5.56-19.282 10.597-2.44 10.597 2.44-5.56 19.282-5.037 2.317zM4.802 57.207l5.954-6.616-.437 5.346-5.517 1.27zm8.657-9.15l8.58-1.716 3.735 6.037-12.912 2.973.597-7.294zm.21-2.578l.915-11.187 6.058 9.792-6.972 1.395zm11.793 1.667l9.713 3.067-6.841 1.575-2.872-4.642zm19.164 3.067l9.712-3.067-2.872 4.642-6.84-1.575zm13.136-3.872l8.58 1.716.596 7.294-12.912-2.973 3.736-6.037zm1.396-2.257l6.058-9.792.915 11.187-6.973-1.395zm10.323 11.853l-.437-5.346 5.954 6.616-5.517-1.27zM56.344 43.905l-10.008 3.16 15.22-11.584-5.212 8.424zm-32.887 0l-5.213-8.424 15.22 11.584-10.007-3.16zM11.09 46.502l-5.73 6.366 6.433-14.97-.703 8.604zm-.12 11.838l4.562 6.168-10.457-4.81 5.895-1.358zm2.643-.609l13.264-3.054 5.002 17.35-11.657-5.362-6.61-8.934zm19.176 17.452l4.002 13.881-13.5-18.25 9.498 4.37zm14.222 0l9.498-4.369-13.5 18.25 4.002-13.88zm.91-3.156l5.003-17.35 13.263 3.054-6.608 8.934-11.658 5.362zm20.91-13.687l5.894 1.357-10.457 4.81 4.563-6.167zm-.121-11.837l-.704-8.603 6.432 14.968-5.728-6.365zM7.737 63.658l10.865 4.998L30.855 85.22 7.737 63.658zm53.462 4.998l10.865-4.998L48.946 85.22l12.253-16.564z" fill="#FFF" fill-rule="evenodd"/></svg>