<svg width="81" height="81" viewBox="0 1 81 81" xmlns="http://www.w3.org/2000/svg"><path d="M27.023 45.54L4.832 23.908A39.835 39.835 0 0 0 1 40.999c0 10.308 3.902 19.703 10.304 26.795l13.082-6.877 2.637-15.377zm13.978 10.155L13.58 70.11C20.743 76.857 30.385 81 41 81a39.848 39.848 0 0 0 16.487-3.558l-2.56-14.426L41 55.696zM32.363 29.11l13.71-27.78A40.28 40.28 0 0 0 41 1C26.18 1 13.253 9.065 6.342 21.04l10.582 10.314 15.439-2.244zm17.275 0L80.3 33.566C77.32 17.72 65.004 5.172 49.277 1.862L42.734 15.12l6.904 13.99z" fill="#FFF" fill-rule="evenodd"/><path fill="#FFF" fill-rule="evenodd" d="M47.574 31.952l-6.573-13.319-6.574 13.32-14.699 2.135 10.636 10.367-2.51 14.64 13.147-6.912 13.238 6.96-2.606-14.684 10.64-10.371z"/><path d="M80.777 36.777l-14.63-2.126-11.166 10.886 5.406 30.452C72.678 69.163 81 56.056 81 40.999c0-1.426-.077-2.835-.223-4.222z" fill="#FFF" fill-rule="evenodd"/></svg>